<svg width="24" height="24" viewBox="0 0 24 24" fill="none" xmlns="http://www.w3.org/2000/svg">
<path d="M11.9998 0.373535C5.58195 0.373535 0.373291 5.5822 0.373291 12C0.373291 18.4178 5.58195 23.6265 11.9998 23.6265C18.4176 23.6265 23.6262 18.4178 23.6262 12C23.6262 5.5822 18.4176 0.373535 11.9998 0.373535ZM11.9998 4.50592C12.4117 4.50592 12.7439 4.8381 12.7439 5.25001V11.6944L16.7699 15.7205C17.0623 16.0128 17.0623 16.4779 16.7699 16.7702C16.4776 17.0625 16.0126 17.0625 15.707 16.7702L11.5746 12.6245C11.4018 12.4518 11.2822 12.2923 11.2424 12V5.25001C11.2424 4.8381 11.5879 4.50592 11.9998 4.50592Z" fill="url(#paint0_linear)"/>
<defs>
<linearGradient id="paint0_linear" x1="2.97982" y1="5.70235" x2="22.328" y2="6.0374" gradientUnits="userSpaceOnUse">
<stop stop-color="#C69D83"/>
<stop offset="1" stop-color="#D9BB8F"/>
</linearGradient>
</defs>
</svg>
