<svg width="16" height="21" viewBox="0 0 16 21" fill="none" xmlns="http://www.w3.org/2000/svg">
<path d="M7.54001 6.64955e-06C6.54947 -0.00130968 5.56841 0.19282 4.65302 0.571274C3.73763 0.949728 2.9059 1.50507 2.20549 2.20549C1.50507 2.9059 0.949728 3.73763 0.571274 4.65302C0.19282 5.56841 -0.00130968 6.54947 6.64955e-06 7.54001C6.64955e-06 11.7 7.54001 20.72 7.54001 20.72C7.54001 20.72 15.07 11.72 15.07 7.54001C15.0713 6.55031 14.8775 5.57007 14.4997 4.65533C14.1219 3.74059 13.5674 2.90931 12.8681 2.20903C12.1687 1.50874 11.3382 0.953192 10.4239 0.574149C9.50969 0.195106 8.5297 5.77681e-06 7.54001 6.64955e-06ZM7.54001 9.68001C6.97986 9.68199 6.43173 9.51769 5.96503 9.20793C5.49832 8.89818 5.13404 8.45689 4.91831 7.93995C4.70258 7.42301 4.64511 6.85368 4.75317 6.30406C4.86123 5.75443 5.12997 5.24924 5.52536 4.85246C5.92074 4.45567 6.42498 4.18515 6.97421 4.07514C7.52345 3.96513 8.09298 4.02059 8.61068 4.23448C9.12838 4.44838 9.57095 4.8111 9.88236 5.27671C10.1938 5.74231 10.36 6.28986 10.36 6.85001C10.3613 7.22117 10.2894 7.58895 10.1482 7.93225C10.0071 8.27554 9.79958 8.58759 9.53759 8.85052C9.2756 9.11344 8.96428 9.32205 8.62149 9.46439C8.2787 9.60674 7.91118 9.68001 7.54001 9.68001Z" fill="#6D7881"/>
</svg>
